<svg class="bug-icon" width="30" height="32" viewBox="0 0 30 32" version="1.1" xmlns="http://www.w3.org/2000/svg" xmlns:xlink="http://www.w3.org/1999/xlink">
<g id="Canvas" fill="none">
<g id="BUG">
<g id="Group">
<path id="Vector" d="M 2.08491 1.64597C 2.04535 1.64597 2.02556 1.62599 1.986 1.62599L 0.403352 1.12654C 0.106607 1.02665 -0.0714425 0.706998 0.0274727 0.407327C 0.126388 0.107656 0.442918 -0.0721456 0.739664 0.0277448L 2.32231 0.527196C 2.61905 0.627087 2.7971 0.946734 2.69818 1.2464C 2.61905 1.5261 2.36187 1.68592 2.08491 1.64597Z" transform="translate(20.1146 9.74835)" fill="white"/>
<path id="Vector_2" d="M 0.493249 1.99647C 0.315202 1.97649 0.156938 1.85662 0.0580225 1.67682C -0.0804588 1.39712 0.0382401 1.03752 0.315203 0.897675L 1.99676 0.0585963C 2.27372 -0.0812501 2.62982 0.0386158 2.7683 0.318309C 2.90678 0.598002 2.78808 0.957609 2.51112 1.09746L 0.829563 1.93653C 0.730648 1.99647 0.611947 2.01645 0.493249 1.99647Z" transform="translate(23.1505 9.47775)" fill="white"/>
<path id="Vector_3" d="M 0.497129 2.16021C 0.378431 2.14023 0.279517 2.10028 0.180602 2.00038C -0.0567944 1.78063 -0.0567956 1.42102 0.160818 1.18129L 1.09062 0.182383C 1.30823 -0.0573543 1.66433 -0.0573555 1.90173 0.162403C 2.13912 0.382162 2.13912 0.741768 1.92151 0.981505L 0.991705 1.98041C 0.873007 2.14023 0.675176 2.20017 0.497129 2.16021Z" transform="translate(26.0745 7.65585)" fill="white"/>
<path id="Vector_4" d="M 1.64455 2.34001C 1.52585 2.32004 1.40715 2.2601 1.30824 2.18019L 0.160818 0.981505C -0.0567956 0.761746 -0.0567944 0.382161 0.180602 0.162403C 0.398216 -0.0573561 0.774092 -0.0573549 0.991705 0.182382L 2.13912 1.38107C 2.35674 1.60082 2.35673 1.98041 2.11934 2.20016C 2.00064 2.32003 1.82259 2.35999 1.64455 2.34001Z" transform="translate(20.2385 12.5904)" fill="white"/>
<path id="Vector_5" d="M 0.494575 1.15873C 0.217612 1.11877 -1.20746e-06 0.859056 -1.20746e-06 0.559385C 0.0197818 0.239736 0.276961 1.21936e-06 0.59349 1.21936e-06L 2.47288 0.0799123C 2.78941 0.0998903 3.02681 0.359605 3.02681 0.679254C 3.00702 0.998903 2.74984 1.23864 2.43331 1.23864L 0.553925 1.15873C 0.534142 1.1787 0.514358 1.1787 0.494575 1.15873Z" transform="translate(22.7535 14.2312)" fill="white"/>
<path id="Vector_6" d="M 0.48445 1.56804C 0.28662 1.52809 0.0887889 1.38824 0.0294398 1.16848C -0.0694754 0.868809 0.0887895 0.549159 0.385535 0.449269L 1.67143 0.0297282C 1.96818 -0.0701622 2.28471 0.089663 2.38362 0.389334C 2.48254 0.689005 2.32427 1.00866 2.02753 1.10855L 0.741628 1.52808C 0.662495 1.56804 0.563583 1.56804 0.48445 1.56804Z" transform="translate(26.0674 13.762)" fill="white"/>
<path id="Vector_7" d="M 0.480714 3.2624C 0.441148 3.2624 0.381796 3.24242 0.34223 3.22245C 0.0454844 3.10258 -0.0732139 2.76295 0.0454844 2.46328L 0.955506 0.345605C 1.0742 0.045934 1.41052 -0.0739344 1.70726 0.045934C 2.00401 0.165802 2.1227 0.50543 2.004 0.805101L 1.09399 2.92277C 0.995071 3.18249 0.737893 3.30236 0.480714 3.2624Z" transform="translate(27.9505 4.37607)" fill="white"/>
<path id="Vector_8" d="M 1.463 2.45635C 1.32452 2.43637 1.18604 2.35646 1.08712 2.23659L 0.117757 0.91804C -0.0800737 0.658325 -0.0207234 0.29872 0.236456 0.118918C 0.493636 -0.0808631 0.849731 -0.0209277 1.02778 0.238787L 1.99715 1.55734C 2.19498 1.81705 2.13563 2.17666 1.87845 2.35646C 1.75975 2.43637 1.60149 2.47633 1.463 2.45635Z" transform="translate(21.8641 16.7893)" fill="white"/>
<path id="Vector_9" d="M 1.8191 2.93583C 1.68062 2.91585 1.54214 2.83593 1.44322 2.71607L 0.117756 0.91804C -0.0800749 0.658325 -0.0207246 0.29872 0.236455 0.118917C 0.493635 -0.0808637 0.849729 -0.0209283 1.02778 0.238787L 2.35324 2.03681C 2.55107 2.29653 2.49172 2.65613 2.23454 2.83594C 2.11585 2.93583 1.95758 2.9558 1.8191 2.93583Z" transform="translate(23.7238 19.2267)" fill="white"/>
<path id="Vector_10" d="M 1.44322 2.41639C 1.30474 2.39642 1.16626 2.31651 1.06734 2.19664L 0.117758 0.91804C -0.0800725 0.658325 -0.0207252 0.29872 0.236454 0.118917C 0.493634 -0.0808637 0.849729 -0.0209283 1.02778 0.238787L 1.97736 1.51738C 2.17519 1.7771 2.11584 2.1367 1.85866 2.3165C 1.73997 2.41639 1.5817 2.43637 1.44322 2.41639Z" transform="translate(26.0384 22.2234)" fill="white"/>
<path id="Vector_11" d="M 0.978865 2.70663C 0.761251 2.66667 0.583203 2.52682 0.523854 2.30707L 0.0292777 0.748777C -0.0696375 0.449106 0.0886286 0.129458 0.405157 0.0295681C 0.701903 -0.0703222 1.01843 0.0895011 1.11735 0.40915L 1.61192 1.96744C 1.71084 2.26711 1.55257 2.58676 1.23604 2.68665C 1.15691 2.70663 1.058 2.70663 0.978865 2.70663Z" transform="translate(21.6361 22.7323)" fill="white"/>
<path id="Vector_12" d="M 0.493636 2.43637C 0.394721 2.4164 0.315588 2.39642 0.236456 2.33648C -0.020724 2.15668 -0.0800743 1.7771 0.117756 1.53736L 1.06734 0.238787C 1.24539 -0.0209277 1.62127 -0.0808631 1.85866 0.118918C 2.11584 0.29872 2.17519 0.678303 1.97736 0.91804L 1.02778 2.21661C 0.909079 2.37644 0.691466 2.45635 0.493636 2.43637Z" transform="translate(20.6179 29.1757)" fill="white"/>
<path id="Vector_13" d="M 0.484562 3.12644C 0.168033 3.08649 -0.0495791 2.78682 0.00977001 2.46717L 0.286731 0.48934C 0.326298 0.169691 0.623044 -0.0500697 0.939573 0.00986449C 1.2561 0.0498206 1.47371 0.349492 1.41436 0.669141L 1.1374 2.64697C 1.07805 2.96662 0.801091 3.18638 0.484562 3.12644Z" transform="translate(21.9326 25.7687)" fill="white"/>
<path id="Vector_14" d="M 0.475862 1.15981C 0.515428 1.15981 0.535211 1.15981 0.574777 1.15981L 2.21677 1.13983C 2.5333 1.13983 2.79048 0.880115 2.7707 0.560466C 2.7707 0.240817 2.51352 -0.0188982 2.19699 0.00107987L 0.554996 0.0210592C 0.238467 0.0210592 -0.0187131 0.280773 0.00106993 0.600422C 0.00106993 0.900093 0.198899 1.11985 0.475862 1.15981Z" transform="translate(9.61652 8.45648)" fill="white"/>
<path id="Vector_15" d="M 1.89248 2.43056C 2.07053 2.45054 2.26836 2.39061 2.38705 2.25076C 2.60467 2.01103 2.58489 1.65142 2.34749 1.43166L 0.962676 0.153065C 0.725279 -0.0666938 0.369183 -0.0467163 0.15157 0.19302C -0.0660439 0.432757 -0.0462585 0.792364 0.191138 1.01212L 1.57595 2.29072C 1.67487 2.37063 1.79356 2.41059 1.89248 2.43056Z" transform="translate(6.77551 6.86609)" fill="white"/>
<path id="Vector_16" d="M 1.10652 2.37605C 1.22522 2.39603 1.34392 2.37605 1.44284 2.31612C 1.7198 2.17627 1.8385 1.81666 1.70001 1.53697L 1.08674 0.318309C 0.948261 0.0386158 0.592164 -0.0812517 0.315201 0.0585948C 0.0382389 0.198441 -0.080457 0.558047 0.0580243 0.83774L 0.671297 2.0564C 0.770212 2.25618 0.928476 2.35607 1.10652 2.37605Z" transform="translate(5.22705 4.48328)" fill="white"/>
<path id="Vector_17" d="M 0.490974 1.95421C 0.609672 1.97419 0.728371 1.95421 0.84707 1.89428L 2.29123 1.07518C 2.5682 0.915356 2.66711 0.575727 2.50885 0.296034C 2.35058 0.0163412 2.01427 -0.0835473 1.73731 0.0762772L 0.293144 0.895376C 0.016181 1.0552 -0.0827324 1.39483 0.075532 1.67452C 0.174447 1.81437 0.33271 1.93424 0.490974 1.95421Z" transform="translate(8.90887 11.1582)" fill="white"/>
<path id="Vector_18" d="M 2.31355 1.59717C 2.59052 1.63713 2.86748 1.45732 2.94661 1.17763C 3.02574 0.877959 2.84769 0.55831 2.53116 0.478398L 0.711125 0.0189016C 0.414379 -0.0610107 0.0978505 0.118793 0.0187183 0.438442C -0.0604139 0.738113 0.117635 1.05776 0.434163 1.13767L 2.2542 1.59717C 2.27399 1.57719 2.29377 1.59717 2.31355 1.59717Z" transform="translate(5.64221 11.5752)" fill="white"/>
<path id="Vector_19" d="M 1.58607 1.92136C 1.7839 1.96131 2.00151 1.86142 2.14 1.68162C 2.31804 1.4219 2.25869 1.0623 2.00152 0.882496L 0.893664 0.103353C 0.636484 -0.0764499 0.280389 -0.0165163 0.102342 0.243199C -0.0757054 0.502913 -0.0163554 0.862519 0.240824 1.04232L 1.34867 1.82146C 1.42781 1.8814 1.50694 1.90138 1.58607 1.92136Z" transform="translate(3.22424 10.2321)" fill="white"/>
<path id="Vector_20" d="M 0.756396 3.44091C 0.795962 3.44091 0.855312 3.44091 0.914661 3.44091C 1.23119 3.40096 1.4488 3.12126 1.40924 2.80162L 1.13227 0.504138C 1.09271 0.184489 0.815744 -0.03527 0.499216 0.00468609C 0.182687 0.0446422 -0.0349267 0.324334 0.00463944 0.643984L 0.281604 2.94146C 0.301387 3.20118 0.499216 3.42093 0.756396 3.44091Z" transform="translate(4.40991 0.80127)" fill="white"/>
<path id="Vector_21" d="M 0.485135 2.10814C 0.623616 2.12812 0.781879 2.08816 0.900577 2.00825L 2.20626 1.02932C 2.46344 0.829543 2.50301 0.469938 2.32496 0.230201C 2.12713 -0.0295136 1.77103 -0.069468 1.53364 0.110335L 0.227955 1.08926C -0.029225 1.28904 -0.0687923 1.64864 0.109255 1.88838C 0.20817 2.02823 0.346654 2.08816 0.485135 2.10814Z" transform="translate(6.32318 14.7202)" fill="white"/>
<path id="Vector_22" d="M 0.485135 2.46775C 0.623616 2.48772 0.78188 2.44777 0.900578 2.36785L 2.68105 1.02933C 2.93823 0.829544 2.9778 0.469939 2.79975 0.230202C 2.60192 -0.0295124 2.24583 -0.0694698 2.00843 0.110333L 0.227954 1.44886C -0.0292253 1.64864 -0.068791 2.00825 0.109256 2.24799C 0.208172 2.36785 0.346653 2.44777 0.485135 2.46775Z" transform="translate(3.37543 16.5382)" fill="white"/>
<path id="Vector_23" d="M 0.485134 2.08816C 0.623616 2.10814 0.78188 2.06819 0.900578 1.98827L 2.16669 1.02933C 2.42387 0.829544 2.46344 0.469939 2.28539 0.230202C 2.08756 -0.0295124 1.73147 -0.0694698 1.49407 0.110333L 0.227954 1.06928C -0.0292255 1.26906 -0.0687913 1.62867 0.109256 1.8684C 0.208171 1.98827 0.346653 2.06819 0.485134 2.08816Z" transform="translate(0.823608 18.7358)" fill="white"/>
<path id="Vector_24" d="M 0.496881 2.49959C 0.714495 2.53954 0.932109 2.43965 1.05081 2.25985L 1.96083 0.901341C 2.13887 0.641626 2.07953 0.282021 1.80256 0.102219C 1.54538 -0.077584 1.18929 -0.0176492 1.01124 0.262044L 0.10122 1.62055C -0.0768273 1.88026 -0.0174775 2.23987 0.259485 2.41967C 0.318834 2.45963 0.397966 2.49959 0.496881 2.49959Z" transform="translate(5.263 20.462)" fill="white"/>
<path id="Vector_25" d="M 1.04857 2.65716C 1.14749 2.67714 1.22662 2.65716 1.32554 2.63718C 1.62228 2.53729 1.78055 2.19766 1.66185 1.89799L 1.10792 0.379656C 1.00901 0.0799848 0.672697 -0.0798391 0.375952 0.0400293C 0.0792058 0.13992 -0.0790609 0.479546 0.0396373 0.779217L 0.593563 2.29755C 0.672695 2.49733 0.850743 2.63718 1.04857 2.65716Z" transform="translate(4.41455 26.6575)" fill="white"/>
<path id="Vector_26" d="M 0.484563 3.12127C 0.801091 3.16123 1.07805 2.94147 1.1374 2.6418L 1.41437 0.663972C 1.45393 0.344323 1.23632 0.0646292 0.939573 0.00469501C 0.623044 -0.0352611 0.346081 0.184499 0.286732 0.48417L 0.00977061 2.462C -0.0495785 2.78165 0.168034 3.08132 0.484563 3.12127Z" transform="translate(4.48395 23.2366)" fill="white"/>
<path id="Vector_27" d="M 12.1019 1.17871C 11.6469 3.59605 9.98516 4.75478 7.51228 4.39517C 5.03939 4.03557 3.77328 2.43732 4.01067 -6.09682e-07C 2.07194 2.07772 0.548641 5.35412 0.113414 8.33085C -0.598775 13.3653 2.13129 15.5829 5.83072 16.1223C 9.53015 16.6617 12.7746 15.3232 13.4868 10.2887C 13.9418 7.31197 13.3878 3.7359 12.1019 1.17871Z" transform="translate(7.66437 12.7528)" fill="white"/>
<path id="Vector_28" d="M 6.9654 7.73797C 6.9654 7.65805 6.98519 7.55817 6.98519 7.47825C 7.12367 5.58034 6.54996 3.34279 5.48168 2.26398C 5.48168 2.244 5.48168 2.244 5.48168 2.22402C 5.62016 1.32501 5.24428 0.086368 4.57165 0.00645569C 3.89903 -0.0934346 3.20662 0.985383 3.06814 1.8844C 3.06814 1.90437 3.06814 1.90437 3.06814 1.92435C 1.74268 2.64356 0.575479 4.62139 0.160035 6.49933C 0.140252 6.57924 0.120468 6.67913 0.100685 6.75904C 0.0809019 6.83896 0.0809025 6.91887 0.0611194 7.01876C -0.314758 9.59593 1.08984 10.7347 2.98901 11.0144C 4.88818 11.2941 6.54996 10.5948 6.92584 8.01766C 6.94562 7.89779 6.9654 7.81788 6.9654 7.73797Z" transform="translate(12.2667 5.55429)" fill="white"/>
</g>
</g>
</g>
</svg>
