<svg width="38" height="38" viewBox="0 0 38 38" version="1.1" xmlns="http://www.w3.org/2000/svg" xmlns:xlink="http://www.w3.org/1999/xlink">
<g id="Canvas" fill="none">
<path id="Vector" d="M 31.7329 13.7937C 31.7329 13.6048 31.6057 13.4788 31.4149 13.4788C 31.2242 13.4788 31.097 13.6048 31.097 13.7937L 31.097 18.2027L 25.1192 18.2027L 25.1192 15.4943C 25.1192 15.3054 24.992 15.1794 24.8013 15.1794C 24.6105 15.1794 24.4833 15.3054 24.4833 15.4943L 24.4833 18.2027L 18.7599 18.2027L 18.7599 12.534L 21.6216 12.534C 21.8124 12.534 21.9396 12.4081 21.9396 12.2191C 21.9396 12.0302 21.8124 11.9042 21.6216 11.9042L 18.7599 11.9042L 18.7599 5.98358L 23.3386 5.98358C 23.5294 5.98358 23.6566 5.85761 23.6566 5.66866C 23.6566 5.4797 23.5294 5.41672 23.4022 5.41672L 18.8235 5.41672L 18.8235 0C 18.6327 0 18.442 0 18.2512 0L 18.2512 5.41672L 13.7997 5.41672C 13.6089 5.41672 13.4817 5.54269 13.4817 5.73164C 13.4817 5.9206 13.6089 6.04657 13.7997 6.04657L 18.2512 6.04657L 18.2512 11.9672L 15.5167 11.9672C 15.3259 11.9672 15.1987 12.0931 15.1987 12.2821C 15.1987 12.471 15.3259 12.597 15.5167 12.597L 18.2512 12.597L 18.2512 18.2657L 12.5278 18.2657L 12.5278 15.4313C 12.5278 15.2424 12.4006 15.1164 12.2099 15.1164C 12.0191 15.1164 11.8919 15.2424 11.8919 15.4313L 11.8919 18.2657L 5.91415 18.2657L 5.91415 13.7307C 5.91415 13.5418 5.78696 13.4158 5.59618 13.4158C 5.40541 13.4158 5.27822 13.5418 5.27822 13.7307L 5.27822 18.2657L 0 18.2657C 0 18.3916 0 18.5176 0 18.7066C 0 18.7696 0 18.8325 0 18.8955L 5.27822 18.8955L 5.27822 23.3045C 5.27822 23.4934 5.40541 23.6194 5.59618 23.6194C 5.78696 23.6194 5.91415 23.4934 5.91415 23.3045L 5.91415 18.8955L 11.8919 18.8955L 11.8919 21.6039C 11.8919 21.7928 12.0191 21.9188 12.2099 21.9188C 12.4006 21.9188 12.5278 21.7928 12.5278 21.6039L 12.5278 18.8955L 18.2512 18.8955L 18.2512 24.5642L 15.3895 24.5642C 15.1987 24.5642 15.0715 24.6902 15.0715 24.8791C 15.0715 25.0681 15.1987 25.194 15.3895 25.194L 18.2512 25.194L 18.2512 31.1146L 13.6725 31.1146C 13.4817 31.1146 13.3545 31.2406 13.3545 31.4296C 13.3545 31.6185 13.4817 31.7445 13.6725 31.7445L 18.2512 31.7445L 18.2512 37.3502C 18.442 37.3502 18.6327 37.3502 18.8235 37.3502L 18.8235 31.7445L 23.275 31.7445C 23.4658 31.7445 23.593 31.6185 23.593 31.4296C 23.593 31.2406 23.4658 31.1146 23.275 31.1146L 18.8235 31.1146L 18.8235 25.194L 21.558 25.194C 21.7488 25.194 21.876 25.0681 21.876 24.8791C 21.876 24.6902 21.7488 24.5642 21.558 24.5642L 18.8235 24.5642L 18.8235 18.8955L 24.5469 18.8955L 24.5469 21.7299C 24.5469 21.9188 24.6741 22.0448 24.8649 22.0448C 25.0556 22.0448 25.1828 21.9188 25.1828 21.7299L 25.1828 18.8955L 31.1606 18.8955L 31.1606 23.3045C 31.1606 23.4934 31.2878 23.6194 31.4785 23.6194C 31.6693 23.6194 31.7965 23.4934 31.7965 23.3045L 31.7965 18.7696L 37.6471 18.7696C 37.6471 18.7066 37.6471 18.6436 37.6471 18.5806C 37.6471 18.4546 37.6471 18.3287 37.6471 18.1397L 31.7965 18.1397L 31.7965 13.7937L 31.7329 13.7937Z" transform="translate(0.117676 0)" fill="#B781BA"/>
</g>
</svg>
