<svg class="seringa-icon" width="11" height="38" viewBox="0 0 11 38" version="1.1" xmlns="http://www.w3.org/2000/svg" xmlns:xlink="http://www.w3.org/1999/xlink">
<g id="Canvas" fill="none">
<path id="Vector" d="M 0 18.3552C 0 18.2037 0 18.0612 0 17.9097C 0.181328 17.8473 0.362655 17.7493 0.543983 17.7404C 1.16568 17.7226 1.77874 17.6959 2.40043 17.7404C 3.3157 17.8028 4.06692 16.8761 4.05828 15.9494C 4.05828 15.5841 3.92013 15.397 3.5143 15.4059C 2.80626 15.4237 2.10685 15.3792 1.38154 15.3703C 1.38154 15.0584 1.35564 14.8446 1.39018 14.6485C 1.40745 14.5416 1.52833 14.3901 1.62331 14.3634C 1.86508 14.301 2.12412 14.2832 2.38316 14.2654C 3.2898 14.1941 4.12736 13.3209 4.14463 12.3764C 4.17917 10.2023 4.20507 8.02818 4.23098 5.84516C 4.23961 5.15015 4.22234 4.44624 4.23098 3.75124C 4.24825 2.96713 4.30869 2.18302 3.65246 1.58603C 3.62655 1.5593 3.63519 1.49693 3.61792 1.46129C 3.38478 0.793017 3.50567 0.498977 4.23098 0C 4.8095 0 5.37938 0 5.95791 0C 6.14787 0.178206 6.40691 0.329681 6.51052 0.552439C 6.70049 0.980133 6.64868 1.41674 6.3292 1.79988C 6.08743 2.09392 5.92337 2.40578 5.94927 2.83348C 6.00108 3.83143 6.02698 4.83829 6.04425 5.83625C 6.07879 7.93908 6.1047 10.0419 6.1306 12.1358C 6.1306 12.1804 6.1306 12.2249 6.1306 12.2695C 6.19104 12.7863 6.3551 13.2496 6.70049 13.6417C 7.16676 14.1763 7.76255 14.2832 8.40151 14.2387C 8.80734 14.2119 8.91096 14.408 8.89369 14.7911C 8.88505 15.1742 8.82461 15.4237 8.37561 15.4059C 7.83162 15.3792 7.27901 15.3792 6.73502 15.4148C 6.58824 15.4237 6.3551 15.5485 6.31193 15.6732C 6.08743 16.2969 6.56233 17.2593 7.17539 17.5355C 7.76255 17.8028 8.36697 17.7315 8.98003 17.6602C 9.4463 17.6068 9.91257 17.5177 10.3529 17.8028C 10.3529 17.981 10.3529 18.1592 10.3529 18.3374C 10.1543 18.4532 9.96438 18.6225 9.74852 18.676C 9.04047 18.872 8.63465 19.371 8.44468 20.0571C 8.24609 20.761 8.33243 21.4382 8.66919 22.0886C 9.14409 23.0153 9.58446 23.9509 9.78306 24.9934C 9.87804 25.5013 9.79169 25.6795 9.29951 25.724C 8.86778 25.7686 8.44468 25.8131 7.96114 25.8577C 8.14247 25.9735 8.27199 26.0894 8.41878 26.1606C 8.85051 26.3656 9.13546 26.6864 9.21317 27.1675C 9.27361 27.5239 9.29088 27.8982 9.30815 28.2635C 9.34269 29.1456 9.37723 30.0277 9.3945 30.9187C 9.42903 32.7543 9.45494 34.5898 9.48084 36.4164C 6.63141 36.4164 3.78198 36.4164 0.932542 36.4164C 0.958446 35.1333 0.992984 33.8413 1.01889 32.5582C 1.05343 30.9009 1.07933 29.2436 1.10523 27.5863C 1.10523 27.5596 1.0966 27.5239 1.10523 27.4972C 1.21749 27.1942 1.26929 26.8378 1.45062 26.5883C 1.67512 26.2854 2.01187 26.0715 2.31409 25.8131C 2.06368 25.8131 1.83055 25.8131 1.60604 25.8131C 0.587156 25.8399 0.431732 25.6795 0.751214 24.6637C 1.03616 23.7549 1.43335 22.8906 1.7701 21.9995C 2.27091 20.6719 2.08095 19.1839 0.509444 18.6938C 0.328117 18.6404 0.172693 18.4711 0 18.3552Z" transform="translate(0.176514 0.933746)" fill="white"/>
</g>
</svg>
